<?xml version="1.0" encoding="UTF-8"?>
<!-- Generator: Adobe Illustrator 24.1.0, SVG Export Plug-In . SVG Version: 6.00 Build 0)  -->
<svg version="1.1" id="Layer_1" xmlns="http://www.w3.org/2000/svg" xmlns:xlink="http://www.w3.org/1999/xlink" x="0px" y="0px" viewBox="0 0 470 134" style="enable-background:new 0 0 470 134;" xml:space="preserve">
<style type="text/css">
	.st0{fill:#D2242A;}
</style>
<g>
	<g>
		<g>
			<g>
				<path class="st0" d="M136.77,96.61V26.57h17.43c11.76,0,17.81,3.88,17.81,15.05v14.61c0,10.53-7.81,15.15-16.54,15.15h-4.57      v25.23L136.77,96.61L136.77,96.61z M150.91,59.52h2.32c5.17,0,4.66-2.19,4.66-10.46c0-8.26,0.51-10.12-4.66-10.12h-2.32V59.52z"/>
				<path class="st0" d="M197.11,90.77h-0.18c-1.34,4.8-4.89,6.53-10.42,6.53c-6.33,0-9.53-5.27-9.53-13.14l-0.43-42.45h14.08v38.11      c0,2.4,0.18,4.99,2.85,4.99s3.03-2.59,3.03-4.99V41.71h14.08v54.91h-13.47L197.11,90.77L197.11,90.77z"/>
				<path class="st0" d="M229.7,46.92h0.27c1.53-3.44,4.77-6.09,9.94-6.09c7.13,0,10.18,5.7,10.18,11.36v12.69h-14.08v-6.83      c0-2.21-0.62-4.51-2.94-4.51s-2.94,2.3-2.94,4.51v38.59h-14.08V41.73h13.64L229.7,46.92L229.7,46.92z"/>
				<path class="st0" d="M288.04,82.71c0,10.18-8.02,14.59-17.02,14.59S254,92.88,254,82.71V56.28c0-9.89,6.06-15.46,17.02-15.46      s17.02,5.57,17.02,15.46V82.71z M268.08,81.61c0,2.02,0.71,3.84,2.94,3.84s2.94-1.82,2.94-3.84V56.17      c0-2.02-0.71-3.84-2.94-3.84s-2.94,1.82-2.94,3.84V81.61z"/>
			</g>
		</g>
		<g>
			<path d="M323.63,73.63l-0.15,7.39c0,12.35-8.08,16.23-14.4,16.23c-9.24,0-14.99-6.6-14.99-17.72V44.74     c0-15.32,5.67-19.11,14.88-19.11c9.01,0,14.66,4.66,14.66,16.1c0,0,0-4.55,0,6.24h-9.12V44c-0.09-6.13-0.53-10.09-5.95-10.09     c-4.82,0-5.3,5.4-5.3,12.64v30.37c0,9.53,2.65,11.61,5.72,11.61c3.79,0,5.38-3.07,5.38-9.01v-5.88L323.63,73.63L323.63,73.63z"/>
			<path d="M339.2,22.43v74.09h-9.02V22.43H339.2z"/>
			<path d="M375.28,77.86c-0.18,6.47-0.81,9.81-2.26,12.71c-2.17,4.35-7.28,6.69-12.7,6.69c-5.6,0-10.28-2.45-12.54-7.25     c-1.54-3.01-1.99-6.02-1.99-12.15V60.02c0-8.58,0.72-11.7,3.52-15.27c2.53-3.01,6.67-4.68,11.09-4.68     c4.52,0,9.27,1.78,11.71,5.13c2.26,2.9,3.16,6.69,3.16,12.71v13.04h-20.76v10.59c0,5.02,2.69,7.44,6.49,7.44     c2.89,0,4.19-1.31,5-4.77c0.36-1.34,0.45-3.01,0.54-6.35L375.28,77.86L375.28,77.86z M366.73,61.69v-3.9     c0-6.91-1.86-10.14-6.19-10.14c-2.26,0-3.85,1.23-4.94,3.46c-0.99,2.01-1.08,3.12-1.08,10.59v1.88h12.21V61.69z"/>
			<path d="M381.23,58.96v-2.9c0-6.13,0.99-9.36,3.79-12.04c2.26-2.12,6.54-3.23,10.51-3.23c4.34,0,8.55,1.34,10.71,4.12     c1.81,2.23,2.53,5.13,2.53,10.03v34.45c0,1.9,0.01,5.57,0.73,7.13h-8.82l-0.36-4.46c-2.26,3.79-5.04,5.24-8.92,5.24     c-3.52,0-7.46-1.67-9.36-4.57c-1.9-3.01-2.62-5.46-2.62-11.14c0-9.48,7.5-13.8,13.1-16.47c5.96-2.79,7.36-6.16,7.36-10.17     c0-4.57-1.28-6.58-4.62-6.58c-2.89,0-4.95,1.56-5.49,4.9c-0.27,1.11-0.27,2.23-0.36,5.68h-8.18V58.96z M392.95,73.04     c-3.07,1.9-4.79,4.13-4.79,9.03c0,4.22,1.85,6.6,5.28,6.6c3.79,0,6.63-3.35,6.63-8.09V67.87     C400.06,67.88,396.02,71.15,392.95,73.04z"/>
			<path d="M425.11,41.18v4.01c2.53-3.23,5.73-4.71,9.52-4.71c3.97,0,7.4,2.53,9.12,6.32c1.26,2.79,1.35,3.68,1.35,12.6v37.12h-9.07     v-37.9c0-4.68-0.27-6.35-1.08-7.8c-0.9-1.56-2.44-2.45-4.25-2.45c-4.25,0-5.38,3.68-5.38,10.48v37.68h-9.07V41.58L425.11,41.18z"/>
		</g>
	</g>
	<g>
		<path d="M139.66,107.21h-2.89v-2.4h8.91v2.4h-2.89v10.89h-3.12v-10.89H139.66z"/>
		<path d="M147.03,103.82h3.01v5.82h0.04c0.34-1.1,1.45-1.62,2.53-1.62c2.19,0,2.91,1.6,2.91,3.58v6.49h-3.01v-6.11    c0-1.24-0.55-1.56-1.16-1.56c-0.97,0-1.31,0.84-1.31,2.11v5.56h-3.01V103.82z"/>
		<path d="M166.07,113.93h-5.84c0,1.18,0.76,2.26,2.46,2.26c1.03,0,2.06-0.38,2.8-0.78l0.06,2.27c-0.97,0.36-2.11,0.57-3.14,0.57    c-3.48,0-5.02-2.11-5.02-5.14c0-2.67,1.56-5.08,4.4-5.08c0.89,0,4.3,0,4.3,5.18v0.72H166.07z M163.33,112.29    c0-1.26-0.32-2.44-1.56-2.44c-1.54,0-1.54,1.9-1.54,2.44H163.33z"/>
		<path d="M173,104.81h4.24c2.84,0,4.55,1.35,4.55,4.23c0,2.26-1.26,4.21-4.17,4.21h-1.5v4.85H173V104.81z M177,110.92    c0.97,0,1.67-0.67,1.67-1.9c0-1.31-0.61-1.88-1.85-1.88H176v3.79h1V110.92z"/>
		<path d="M183.72,108.66c0.78-0.25,2.11-0.63,3.2-0.63c3.48,0,4.28,1.45,4.28,3.65v3.62c0,1.47,0.02,2.13,0.08,2.8h-2.74    l-0.08-1.37h-0.04c-0.13,0.61-1.29,1.52-2.72,1.52c-1.85,0-3.06-1.2-3.06-3.01c0-3.31,3.86-3.33,4.91-3.33h0.91    c0-1.9-1.41-1.9-1.85-1.9c-0.76,0-1.58,0.17-2.76,0.88L183.72,108.66z M188.46,113.32c-1.2,0-3.08,0.08-3.08,1.73    c0,1.3,1.05,1.3,1.29,1.3c0.27,0,1.79-0.04,1.79-2.45L188.46,113.32L188.46,113.32z"/>
		<path d="M193.26,110.26c0-0.95-0.02-1.56-0.08-2.07h2.74c0.02,0.59,0.06,1.2,0.08,1.79h0.04c0.61-1.07,1.03-1.94,2.76-1.94h0.44    v2.78c-0.32-0.08-0.59-0.11-1.01-0.11c-1.75,0-1.96,1.52-1.96,2.97v4.43h-3.01V110.26z"/>
		<path d="M201.01,108.66c0.78-0.25,2.11-0.63,3.2-0.63c3.48,0,4.28,1.45,4.28,3.65v3.62c0,1.47,0.02,2.13,0.08,2.8h-2.74    l-0.08-1.37h-0.04c-0.13,0.61-1.29,1.52-2.72,1.52c-1.85,0-3.06-1.2-3.06-3.01c0-3.31,3.86-3.33,4.91-3.33h0.91    c0-1.9-1.41-1.9-1.85-1.9c-0.76,0-1.58,0.17-2.76,0.88L201.01,108.66z M205.75,113.32c-1.2,0-3.08,0.08-3.08,1.73    c0,1.3,1.05,1.3,1.29,1.3c0.27,0,1.79-0.04,1.79-2.45L205.75,113.32L205.75,113.32z"/>
		<path d="M221.32,111.99c0-1.14-0.48-1.56-1.14-1.56c-0.89,0-1.24,0.65-1.24,1.39v6.28h-3.01v-6.11c0-1.26-0.55-1.56-1.05-1.56    c-0.99,0-1.33,0.86-1.33,2.11v5.56h-3.01v-7.84c0-0.95-0.02-1.56-0.08-2.07h2.74c0.04,0.44,0.08,0.99,0.08,1.66h0.04    c0.46-1.09,1.22-1.81,2.8-1.81c1.43,0,2.15,0.67,2.57,1.66c0.44-0.93,1.14-1.66,2.72-1.66c2.19,0,2.91,1.6,2.91,3.58v6.49h-3.01    v-6.12H221.32z"/>
		<path d="M234.88,113.93h-5.84c0,1.18,0.76,2.26,2.46,2.26c1.03,0,2.06-0.38,2.8-0.78l0.06,2.27c-0.97,0.36-2.11,0.57-3.14,0.57    c-3.48,0-5.02-2.11-5.02-5.14c0-2.67,1.56-5.08,4.4-5.08c0.89,0,4.3,0,4.3,5.18v0.72H234.88z M232.14,112.29    c0-1.26-0.32-2.44-1.56-2.44c-1.54,0-1.54,1.9-1.54,2.44H232.14z"/>
		<path d="M245.49,115.87c0,1.26,0.04,1.77,0.08,2.23h-2.85c-0.04-0.38-0.08-0.89-0.08-1.58h-0.04c-0.3,0.61-0.97,1.73-2.7,1.73    c-2.23,0-3.48-2.19-3.48-5.35c0-2.66,0.99-4.87,3.48-4.87c1.39,0,2.19,0.72,2.55,1.62h0.04v-5.82h3.01L245.49,115.87    L245.49,115.87z M240.98,116.08c1.24,0,1.5-1.79,1.5-2.93c0-1.58-0.29-3.06-1.5-3.06c-1.33,0-1.45,1.48-1.45,3.06    C239.53,114.18,239.61,116.08,240.98,116.08z"/>
		<path d="M247.68,103.82h3.01v2.66h-3.01V103.82z M247.68,108.18h3.01v9.92h-3.01V108.18z"/>
		<path d="M259.88,117.83c-0.88,0.23-1.77,0.42-2.72,0.42c-3.83,0-4.68-3.2-4.68-5.01c0-3.04,1.75-5.21,4.91-5.21    c0.99,0,1.52,0.25,2.4,0.48l-0.15,2.27c-0.55-0.21-1.12-0.42-1.75-0.42c-2.28,0-2.28,2.51-2.28,2.89c0,2.09,1.29,2.76,2.44,2.76    c0.63,0,1.2-0.23,1.75-0.44L259.88,117.83z"/>
		<path d="M267.23,110.67c-0.8-0.32-1.54-0.53-2.42-0.53c-0.78,0-1.12,0.38-1.12,0.72c0,0.61,0.44,0.82,2.07,1.43    c1.03,0.38,2.07,1.03,2.07,2.89c0,2.21-1.66,3.06-3.65,3.06c-0.88,0-2.21-0.09-3.25-0.48l0.08-2.32c0.72,0.44,1.64,0.69,2.47,0.69    c1.41,0,1.5-0.49,1.5-0.93s-0.78-0.63-2.07-1.16c-1.05-0.44-2.07-1.27-2.07-3.04c0-1.07,0.76-2.97,3.71-2.97    c1.24,0,2.26,0.23,2.76,0.4L267.23,110.67z"/>
		<path d="M278.81,108.03c3.05,0,4.66,2.11,4.66,5.08c0,3.01-1.62,5.14-4.66,5.14c-3.05,0-4.66-2.13-4.66-5.14    C274.15,110.14,275.77,108.03,278.81,108.03z M278.81,116.19c1.05,0,1.54-1.14,1.54-3.08c0-1.94-0.49-3.03-1.54-3.03    c-1.05,0-1.54,1.09-1.54,3.03C277.27,115.05,277.76,116.19,278.81,116.19z"/>
		<path d="M284.45,108.18h1.73v-1.62c0-1.58,0.61-2.97,3.1-2.97c1.05,0,1.64,0.17,1.96,0.23l-0.08,2.09    c-0.21-0.09-0.51-0.15-0.78-0.15c-0.89,0-1.2,0.32-1.2,1.35v1.07H291v2.11h-1.81v7.8h-3.01v-7.8h-1.73L284.45,108.18    L284.45,108.18z"/>
		<path d="M297.53,104.81h4.24c2.84,0,4.55,1.35,4.55,4.23c0,2.26-1.26,4.21-4.17,4.21h-1.5v4.85h-3.12L297.53,104.81L297.53,104.81    z M301.53,110.92c0.97,0,1.67-0.67,1.67-1.9c0-1.31-0.61-1.88-1.85-1.88h-0.82v3.79h1V110.92z"/>
		<path d="M307.91,110.26c0-0.95-0.02-1.56-0.08-2.07h2.74c0.02,0.59,0.06,1.2,0.08,1.79h0.04c0.61-1.07,1.03-1.94,2.76-1.94h0.44    v2.78c-0.32-0.08-0.59-0.11-1.01-0.11c-1.75,0-1.96,1.52-1.96,2.97v4.43h-3.01V110.26z"/>
		<path d="M319.39,108.03c3.05,0,4.66,2.11,4.66,5.08c0,3.01-1.62,5.14-4.66,5.14c-3.05,0-4.66-2.13-4.66-5.14    C314.72,110.14,316.34,108.03,319.39,108.03z M319.39,116.19c1.05,0,1.54-1.14,1.54-3.08c0-1.94-0.49-3.03-1.54-3.03    c-1.05,0-1.54,1.09-1.54,3.03C317.85,115.05,318.34,116.19,319.39,116.19z"/>
		<path d="M325.9,110.41c0-1.26-0.04-1.77-0.08-2.23h2.85c0.04,0.38,0.08,0.89,0.08,1.58h0.04c0.3-0.61,0.97-1.73,2.7-1.73    c2.23,0,3.48,2.19,3.48,5.35c0,2.67-0.99,4.87-3.48,4.87c-1.39,0-2.19-0.72-2.55-1.62h-0.04v5.58h-3.01L325.9,110.41L325.9,110.41    z M330.41,110.2c-1.24,0-1.5,1.79-1.5,2.93c0,1.58,0.29,3.06,1.5,3.06c1.33,0,1.45-1.48,1.45-3.06    C331.86,112.1,331.78,110.2,330.41,110.2z"/>
		<path d="M345.28,113.93h-5.84c0,1.18,0.76,2.26,2.46,2.26c1.03,0,2.06-0.38,2.8-0.78l0.06,2.27c-0.97,0.36-2.11,0.57-3.14,0.57    c-3.48,0-5.02-2.11-5.02-5.14c0-2.67,1.56-5.08,4.4-5.08c0.89,0,4.3,0,4.3,5.18v0.72H345.28z M342.54,112.29    c0-1.26-0.32-2.44-1.56-2.44c-1.54,0-1.54,1.9-1.54,2.44H342.54z"/>
		<path d="M347.06,110.26c0-0.95-0.02-1.56-0.08-2.07h2.74c0.02,0.59,0.06,1.2,0.08,1.79h0.04c0.61-1.07,1.03-1.94,2.76-1.94h0.44    v2.78c-0.32-0.08-0.59-0.11-1.01-0.11c-1.75,0-1.96,1.52-1.96,2.97v4.43h-3.01V110.26z"/>
		<path d="M353.68,108.18h1.71v-2.04l2.93-0.93v2.97h1.94v2.11h-1.94v4.55c0,0.97,0.44,1.24,1.01,1.24c0.42,0,0.69-0.08,0.99-0.21    v2.11c-0.3,0.11-1.12,0.27-2.09,0.27c-1.56,0-2.91-0.76-2.91-2.93v-5.02h-1.64L353.68,108.18L353.68,108.18z"/>
		<path d="M367.1,119.01c-0.74,2.32-1.79,3.31-3.46,3.31c-0.53,0-1.29-0.09-1.81-0.25l0.09-2.23c0.19,0.12,0.51,0.23,0.95,0.23    c1.01,0,1.48-1.12,1.48-1.98l-3.44-9.92h3.12l1.85,6.72h0.04l1.75-6.72h2.93L367.1,119.01z"/>
		<path d="M376.91,104.81h4.72c2.99,0,5.94,1.75,5.94,6.76c0,4.59-2.99,6.53-6.34,6.53h-4.32V104.81z M380.03,115.77h0.99    c2.27,0,3.27-1.79,3.27-4.21c0-2.74-1.05-4.43-3.46-4.43h-0.8V115.77z"/>
		<path d="M390.09,108.66c0.78-0.25,2.11-0.63,3.2-0.63c3.48,0,4.28,1.45,4.28,3.65v3.62c0,1.47,0.02,2.13,0.08,2.8h-2.74    l-0.08-1.37h-0.04c-0.13,0.61-1.29,1.52-2.72,1.52c-1.85,0-3.06-1.2-3.06-3.01c0-3.31,3.86-3.33,4.91-3.33h0.91    c0-1.9-1.41-1.9-1.85-1.9c-0.76,0-1.58,0.17-2.76,0.88L390.09,108.66z M394.83,113.32c-1.2,0-3.08,0.08-3.08,1.73    c0,1.3,1.05,1.3,1.29,1.3c0.27,0,1.79-0.04,1.79-2.45L394.83,113.32L394.83,113.32z"/>
		<path d="M410.4,111.99c0-1.14-0.48-1.56-1.14-1.56c-0.89,0-1.24,0.65-1.24,1.39v6.28h-3.01v-6.11c0-1.26-0.55-1.56-1.05-1.56    c-0.99,0-1.33,0.86-1.33,2.11v5.56h-3.01v-7.84c0-0.95-0.02-1.56-0.08-2.07h2.74c0.04,0.44,0.08,0.99,0.08,1.66h0.04    c0.46-1.09,1.22-1.81,2.8-1.81c1.43,0,2.15,0.67,2.57,1.66c0.44-0.93,1.14-1.66,2.72-1.66c2.19,0,2.91,1.6,2.91,3.58v6.49h-3.01    v-6.12H410.4z"/>
		<path d="M416.19,108.66c0.78-0.25,2.11-0.63,3.2-0.63c3.48,0,4.28,1.45,4.28,3.65v3.62c0,1.47,0.02,2.13,0.08,2.8h-2.74    l-0.08-1.37h-0.04c-0.13,0.61-1.29,1.52-2.72,1.52c-1.85,0-3.06-1.2-3.06-3.01c0-3.31,3.86-3.33,4.91-3.33h0.91    c0-1.9-1.41-1.9-1.85-1.9c-0.76,0-1.58,0.17-2.76,0.88L416.19,108.66z M420.93,113.32c-1.2,0-3.08,0.08-3.08,1.73    c0,1.3,1.05,1.3,1.29,1.3c0.27,0,1.79-0.04,1.79-2.45L420.93,113.32L420.93,113.32z"/>
		<path d="M434.56,116.9c0,1.45-0.04,5.42-5.04,5.42c-1.41,0-2.63-0.3-3.58-0.59l0.1-2.46c0.51,0.27,1.75,0.88,3.12,0.88    c2.38,0,2.47-1.75,2.47-3.81h-0.04c-0.17,0.53-0.93,1.75-2.61,1.75c-1.73,0-3.5-1.22-3.5-4.95c0-3.16,1.26-5.12,3.52-5.12    c1.73,0,2.4,1.12,2.66,1.73h0.04l0.08-1.58h2.85c-0.04,0.46-0.08,0.97-0.08,2.23L434.56,116.9L434.56,116.9z M430.05,115.98    c1.22,0,1.5-1.47,1.5-2.85c0-1.14-0.27-2.93-1.48-2.93c-1.39,0-1.47,1.9-1.47,2.93C428.61,113.91,428.72,115.98,430.05,115.98z"/>
		<path d="M445.11,113.93h-5.84c0,1.18,0.76,2.26,2.46,2.26c1.03,0,2.06-0.38,2.8-0.78l0.06,2.27c-0.97,0.36-2.11,0.57-3.14,0.57    c-3.48,0-5.02-2.11-5.02-5.14c0-2.67,1.56-5.08,4.4-5.08c0.89,0,4.3,0,4.3,5.18v0.72H445.11z M442.37,112.29    c0-1.26-0.32-2.44-1.56-2.44c-1.54,0-1.54,1.9-1.54,2.44H442.37z"/>
	</g>
	<g>
		<path d="M447.44,34.17c0-3.5,2.55-5.9,5.63-5.9c3.12,0,5.66,2.4,5.66,5.9s-2.54,5.9-5.66,5.9    C449.99,40.07,447.44,37.67,447.44,34.17z M457.54,34.17c0-2.82-1.95-4.82-4.46-4.82s-4.43,2.01-4.43,4.82    c0,2.85,1.92,4.79,4.43,4.79C455.59,38.96,457.54,37.01,457.54,34.17z M450.92,31.05h2.28c1.26,0,2.34,0.51,2.34,1.95    c0,0.72-0.45,1.41-1.11,1.65l1.38,2.49h-1.38l-1.05-2.1h-1.23v2.1h-1.23L450.92,31.05L450.92,31.05z M452.93,34.08    c0.81,0,1.29-0.36,1.29-1.02c0-0.6-0.33-0.99-1.23-0.99h-0.84v2.01L452.93,34.08L452.93,34.08z"/>
	</g>
	<g>
		<g>
			<g>
				<path class="st0" d="M76.93,81.66v5.39v0.26l0.22,0.14l5.43,3.47l-2.61-0.01h-0.48v0.48v11.06H69.1H58.71V91.39v-0.48h-0.48      l-2.61,0.01l13.47-8.6l4.1,2.62l0.73,0.46v-0.86v-2.88L76.93,81.66"/>
			</g>
			<g>
				<path d="M76.7,62.81V76.3v0.47h0.47h13.56V90.9h-3.88l-7.61-4.86v-6.23v-0.47h-0.47H72.1h-0.47v0.47v1.37l-2.26-1.44l-0.25-0.16      l-0.25,0.16L51.38,90.9H47.5V76.77h13.56h0.47V76.3V62.81H76.7"/>
			</g>
		</g>
		<path d="M64.08,38.72c2.77-4.79,7.29-4.79,10.06,0l12.43,21.53h8.12L69.11,15.94L43.53,60.25h8.12L64.08,38.72z"/>
		<g>
			<g>
				<path d="M59.08,111.21H32.29c-5.53,0-7.79-3.92-5.03-8.71L40.1,80.29h-0.03h-8.11l-21.91,37.95h49.04L59.08,111.21L59.08,111.21      z"/>
				<path d="M106.26,80.29L106.26,80.29h-8.11l12.81,22.21c2.77,4.79,0.5,8.71-5.03,8.71h-26.8v7.03h49.05L106.26,80.29z"/>
			</g>
		</g>
	</g>
</g>
</svg>